<svg width="19" height="20" viewBox="0 0 19 20" fill="none" xmlns="http://www.w3.org/2000/svg">
<path fill-rule="evenodd" clip-rule="evenodd" d="M9.49963 0C9.83111 0 10.149 0.131682 10.3834 0.366076C10.6178 0.60047 10.7495 0.918377 10.7495 1.24986V15.7307L16.1139 10.3638C16.2301 10.2476 16.3681 10.1555 16.5199 10.0926C16.6717 10.0297 16.8344 9.9973 16.9988 9.9973C17.1631 9.9973 17.3259 10.0297 17.4777 10.0926C17.6295 10.1555 17.7675 10.2476 17.8837 10.3638C17.9999 10.48 18.0921 10.618 18.155 10.7698C18.2179 10.9217 18.2502 11.0844 18.2502 11.2487C18.2502 11.4131 18.2179 11.5758 18.155 11.7276C18.0921 11.8795 17.9999 12.0174 17.8837 12.1336L10.3845 19.6328C10.2684 19.7492 10.1305 19.8415 9.97866 19.9046C9.82681 19.9676 9.66403 20 9.49963 20C9.33523 20 9.17244 19.9676 9.02059 19.9046C8.86875 19.8415 8.73083 19.7492 8.61472 19.6328L1.11556 12.1336C0.999355 12.0174 0.907174 11.8795 0.844284 11.7276C0.781393 11.5758 0.749023 11.4131 0.749023 11.2487C0.749023 11.0844 0.781393 10.9217 0.844284 10.7698C0.907174 10.618 0.999355 10.48 1.11556 10.3638C1.35025 10.1292 1.66856 9.9973 2.00046 9.9973C2.1648 9.9973 2.32754 10.0297 2.47937 10.0926C2.6312 10.1555 2.76916 10.2476 2.88536 10.3638L8.24977 15.7307V1.24986C8.24977 0.918377 8.38145 0.60047 8.61584 0.366076C8.85024 0.131682 9.16814 0 9.49963 0Z" fill="#FAFAFA"/>
</svg>
